<?xml version="1.0" encoding="iso-8859-1"?>
<!-- Uploaded to: SVG Repo, www.svgrepo.com, Generator: SVG Repo Mixer Tools -->
<svg fill="#000000" height="800px" width="800px" version="1.1" id="Layer_1" xmlns="http://www.w3.org/2000/svg" xmlns:xlink="http://www.w3.org/1999/xlink" 
	 viewBox="0 0 330 330" xml:space="preserve">
<g id="XMLID_821_">
	<path id="XMLID_822_" d="M322.885,92.244c-4.422-2.733-9.944-2.981-14.594-0.656l-43.957,21.981
		c3.643-8.811,5.666-18.456,5.666-28.567C270,43.646,236.355,10,195.002,10c-24.51,0-46.308,11.818-60.002,30.053
		C121.305,21.818,99.509,10,75.002,10C33.646,10,0,43.646,0,85.002c0,20.591,8.344,39.267,21.823,52.834
		C20.661,139.967,20,142.41,20,145.008v119.993c0,8.284,6.716,15,15,15h196.459l76.834,38.415c2.116,1.059,4.414,1.583,6.707,1.583
		c2.742,0,5.478-0.751,7.885-2.24c4.424-2.733,7.115-7.561,7.115-12.76V105.004C330,99.805,327.308,94.978,322.885,92.244z"/>
</g>
</svg>